<svg width="154" height="33" viewBox="0 0 154 33" fill="none" xmlns="http://www.w3.org/2000/svg">
<g>
<g clip-path="url(#clip0_1_11)">
<path d="M28.1191 31.9843H49.5139V30.8282H28.1191" fill="#FFFFFF"/>
<path d="M15.7341 0.897859L22.399 31.9969H15.2167L13.969 25.076H8.09531L6.84754 31.9969H0L6.48233 0.897859H15.7341ZM11.0169 5.85437L8.73441 20.0892H13.3299L11.0169 5.85437Z" fill="#FFFFFF"/>
<path d="M62.7539 32.6316C59.6496 32.6316 57.2758 31.6947 55.6629 29.8511C54.0499 28.0076 53.2586 25.4689 53.3195 22.235H59.6496C59.7105 25.5595 60.7453 27.252 62.7539 27.252C64.3973 27.252 65.219 26.2546 65.219 24.2297C65.219 22.9604 64.9451 21.9328 64.3973 21.147C63.8495 20.3612 62.7843 19.5754 61.2322 18.7292C58.554 17.4296 56.6367 16.0394 55.4803 14.498C54.3238 12.9869 53.7455 11.0829 53.7455 8.81619C53.7455 6.15659 54.5368 4.07123 56.1498 2.5601C57.7628 1.04897 59.954 0.293406 62.7234 0.293406C65.4929 0.293406 67.7145 1.10942 69.1753 2.71122C70.6361 4.31301 71.397 6.7006 71.4274 9.81353H65.2798C65.2798 8.36285 65.0668 7.30505 64.6712 6.67038C64.2755 6.00548 63.6669 5.67303 62.8452 5.67303C62.0843 5.67303 61.5061 5.91481 61.08 6.39838C60.6539 6.88194 60.4409 7.57706 60.4409 8.42329C60.4409 9.48108 60.6844 10.3273 61.2018 10.962C61.7191 11.5967 62.7234 12.3825 64.2755 13.3194C67.045 14.77 68.9927 16.2812 70.1188 17.8225C71.2752 19.3639 71.8535 21.3284 71.8839 23.7462C71.8839 26.4964 71.0622 28.6724 69.4492 30.2742C67.8363 31.876 65.5842 32.6618 62.7234 32.6618L62.7539 32.6316Z" fill="#FFFFFF"/>
<path d="M81.2574 31.9969H74.5012V0.897859H84.2703C87.2224 0.897859 89.4136 1.77431 90.9048 3.497C92.3656 5.21969 93.1265 7.75839 93.1265 11.0527C93.1265 14.3469 92.3961 16.8252 90.9048 18.5176C89.4136 20.2101 87.2224 21.0866 84.2703 21.0866H81.2574V31.9969ZM81.2574 15.8581H83.6312C84.6355 15.8581 85.3659 15.4954 85.8224 14.7398C86.279 13.9843 86.5224 12.7753 86.5224 11.1131C86.5224 9.45086 86.279 8.18151 85.8224 7.45617C85.3659 6.7006 84.6051 6.33793 83.6008 6.33793H81.2879V15.8883L81.2574 15.8581Z" fill="#FFFFFF"/>
<path d="M107.978 0.897859L114.643 31.9969H107.461L106.213 25.076H100.339L99.0915 31.9969H92.2744L98.7262 0.897859H107.978ZM103.261 5.85437L100.978 20.0892H105.574L103.261 5.85437Z" fill="#FFFFFF"/>
<path d="M125.69 32.6316C122.099 32.6316 119.421 31.3018 117.656 28.6422C115.891 25.9826 115.008 21.9026 115.008 16.4625C115.008 11.0224 115.891 6.94238 117.656 4.25257C119.421 1.59298 122.099 0.263184 125.69 0.263184C128.916 0.263184 131.351 1.32098 133.055 3.43656C134.729 5.55214 135.551 8.6953 135.551 12.9265H129.221C129.129 8.39307 128.003 6.12637 125.873 6.12637C124.503 6.12637 123.499 6.91216 122.89 8.48374C122.282 10.0553 121.977 12.7149 121.977 16.4927C121.977 20.2706 122.282 22.9302 122.89 24.5017C123.499 26.0733 124.473 26.8591 125.873 26.8591C128.003 26.8591 129.129 24.5924 129.221 20.059H135.551C135.551 24.2599 134.729 27.4333 133.055 29.5489C131.381 31.6645 128.916 32.6921 125.69 32.6921V32.6316Z" fill="#FFFFFF"/>
<path d="M153.75 26.3151V31.9969H138.138V0.897859H153.385V6.57971H144.803V13.5611H152.015V19.0314H144.803V26.3151H153.75Z" fill="#FFFFFF"/>
</g>
</g>
<defs>
<clipPath id="clip0_1_11">
<rect width="153.75" height="32.3684" fill="white" transform="translate(0 0.263184)"/>
</clipPath>
</defs>
</svg>
