<svg xmlns="http://www.w3.org/2000/svg" width="136" height="44" viewBox="0 0 136 44" fill="none">
  <g clip-path="url(#clip0_2956_609)">
    <path d="M0 0.906738H25.8806V9.12749H9.0068V17.8911H23.779V25.3845H9.0068V34.9932H25.8806V43.2139H0V0.906738Z" fill="black"/>
    <path d="M29.0039 5.01696C29.0039 2.29721 31.1666 0 33.9271 0C36.6876 0 38.9698 2.29721 38.9698 5.01696C38.9698 7.7367 36.6876 10.0339 33.9271 10.0339C31.1666 10.0339 29.0039 7.79821 29.0039 5.01696ZM29.6628 13.235H38.3083V43.2111H29.6628V13.235Z" fill="black"/>
    <path d="M41.25 28.2246C41.25 19.0972 47.855 12.4489 55.8415 12.4489C59.8641 12.4489 63.3472 14.0803 65.4488 17.1637V0.906738H74.0943V43.2139H65.4488V39.2854C63.5279 42.3688 59.8641 44.0002 55.8415 44.0002C47.855 44.0002 41.25 37.3519 41.25 28.2246ZM65.5684 28.1657C65.5684 23.6943 62.1463 20.1268 57.7625 20.1268C53.3786 20.1268 50.0177 23.6916 50.0177 28.2246C50.0177 32.7575 53.4397 36.3223 57.7625 36.3223C62.0852 36.3223 65.5684 32.696 65.5684 28.163V28.1657Z" fill="black"/>
    <path d="M78.0586 13.2349H86.7041V18.4925C88.2663 14.9865 91.0879 13.2349 95.4717 13.2349H102.077V21.3326H94.8102C89.5868 21.3326 86.7041 24.3545 86.7041 29.794V43.2109H78.0586V13.2349Z" fill="black"/>
    <path d="M103.156 28.2243C103.156 19.097 109.761 12.4487 117.748 12.4487C121.712 12.4487 125.253 14.08 127.355 17.1635V13.235H136.001V43.211H127.355V39.2825C125.434 42.3659 121.712 43.9973 117.748 43.9973C109.761 43.9973 103.156 37.349 103.156 28.2217V28.2243ZM127.475 28.1655C127.475 23.6941 124.053 20.1266 119.669 20.1266C115.285 20.1266 111.924 23.6914 111.924 28.2243C111.924 32.7572 115.346 36.3221 119.669 36.3221C123.991 36.3221 127.475 32.6957 127.475 28.1628V28.1655Z" fill="black"/>
  </g>
  <defs>
    <clipPath id="clip0_2956_609">
      <rect width="136" height="44" fill="white"/>
    </clipPath>
  </defs>
</svg>