<svg width="467" height="168" viewBox="0 0 467 168" fill="none" xmlns="http://www.w3.org/2000/svg">
<path d="M355.578 167.958H452.842V137.679H355.578V167.958ZM404.207 0C369.581 0 341.421 27.5893 341.421 61.4889C341.421 95.3951 369.588 122.992 404.207 122.992C438.832 122.992 467 95.3951 467 61.4889C467 27.5893 438.832 0 404.207 0ZM404.207 93.0944C386.424 93.0944 371.957 78.9217 371.957 61.4889C371.957 44.0701 386.424 29.904 404.207 29.904C421.983 29.904 436.471 44.0701 436.471 61.4889C436.471 78.9217 421.983 93.0944 404.207 93.0944ZM33.8752 4.7292H0V168H92.7929V137.679H33.8752V4.7292ZM138.905 65.2717L112.752 4.94014H74.9507L122.02 99.2553V167.958H155.785V99.2348L205.487 4.94014H167.441L138.905 65.2717ZM336.552 4.94014H297.05L253.159 66.2461L253.63 4.94014H219.872V167.958H253.63V116.343L268.338 95.7899L303.567 167.958H343.502L291.358 68.7447L336.552 4.94014Z" fill="white"/>
</svg>
