<svg width="241" height="46" viewBox="0 0 241 46" fill="none" xmlns="http://www.w3.org/2000/svg">
<path d="M225.85 0C228.61 0.36 231.32 0.86 233.88 2.2C237.91 4.32 240.58 8.27 240.58 12.91V32.23C240.58 36.98 237.8 40.99 233.64 43.07C228.03 45.88 218.89 45.88 213.32 42.96C209.36 40.88 206.61 37.01 206.6 32.41L206.58 12.92C206.58 8.29 209.22 4.4 213.19 2.24C215.8 0.83 218.53 0.41 221.35 0H225.85ZM227.34 35.82C229.33 35.17 230.68 33.44 230.68 31.35V13.81C230.68 11.66 229.25 9.94 227.27 9.31C224.87 8.55 222.3 8.55 219.89 9.31C217.9 9.94 216.47 11.66 216.47 13.81V31.35C216.47 33.5 217.9 35.22 219.88 35.84C222.29 36.6 224.85 36.62 227.33 35.82H227.34Z" fill="white"/>
<path d="M147.63 0C150.35 0.35 153.01 0.82 155.55 2.12C159.59 4.18 162.39 8.09 162.39 12.75V32.24C162.41 37.11 159.49 41.18 155.18 43.23C149.58 45.89 140.59 45.86 135.09 42.95C131.16 40.87 128.43 37 128.43 32.43V12.56C128.45 8.1 131.18 4.36 134.97 2.28C137.63 0.82 140.44 0.38 143.31 0H147.63ZM149.16 35.82C151.16 35.16 152.51 33.44 152.51 31.35V13.81C152.51 11.66 151.08 9.93 149.08 9.31C146.67 8.55 144.1 8.56 141.7 9.32C139.72 9.95 138.3 11.67 138.3 13.82V31.34C138.3 33.54 139.79 35.28 141.82 35.88C144.18 36.58 146.7 36.62 149.15 35.82H149.16Z" fill="white"/>
<path d="M36.09 44.47L23.86 44.48L9.52 15.82L9.47 44.48H0V0.68L12.17 0.66L26.59 30.72L26.65 0.66L36.08 0.68L36.09 44.47Z" fill="white"/>
<path d="M121.64 44.47L109.45 44.5L95.1 15.81L95.04 44.48L85.59 44.49V0.68L97.73 0.66L112.17 30.75L112.21 0.67H121.64V44.47Z" fill="white"/>
<path d="M68.3 35.94H53.6L51.19 44.48L40.91 44.46L54.3 0.67H67.51L80.96 44.44L70.68 44.49L68.29 35.95L68.3 35.94ZM65.92 27.68L60.91 9.43L55.83 27.73L65.92 27.69V27.68Z" fill="white"/>
<path d="M193.75 0.66L203.9 0.71L191.5 44.48L177.38 44.5L164.96 0.69L175.13 0.67L184.44 35.45L193.75 0.66Z" fill="white"/>
</svg>
