<svg width="632" height="123" viewBox="0 0 632 123" fill="none" xmlns="http://www.w3.org/2000/svg">
<path d="M629.993 10.2489C629.993 11.8793 629.51 13.473 628.603 14.8285C627.697 16.1841 626.408 17.2406 624.901 17.8645C623.394 18.4884 621.735 18.6516 620.135 18.3336C618.535 18.0155 617.065 17.2304 615.911 16.0776C614.758 14.9248 613.972 13.4561 613.654 11.8571C613.335 10.2581 613.499 8.60069 614.123 7.09448C614.747 5.58826 615.805 4.30088 617.161 3.39513C618.518 2.48937 620.113 2.00593 621.744 2.00593C623.932 2.00593 626.03 2.87439 627.577 4.42025C629.124 5.96612 629.993 8.06276 629.993 10.2489ZM621.744 0.000871973C619.716 0.000871973 617.733 0.601911 616.047 1.72798C614.36 2.85406 613.045 4.45459 612.269 6.32718C611.493 8.19977 611.29 10.2603 611.686 12.2482C612.081 14.2362 613.058 16.0622 614.492 17.4954C615.927 18.9286 617.754 19.9047 619.743 20.3001C621.733 20.6955 623.795 20.4926 625.669 19.7169C627.543 18.9413 629.145 17.6278 630.272 15.9425C631.399 14.2572 632 12.2758 632 10.2489C632 7.53099 630.919 4.92435 628.996 3.00246C627.073 1.08058 624.464 0.000871973 621.744 0.000871973Z" fill="white"/>
<path d="M617.575 4.85757H623.015C623.395 4.83302 623.775 4.88704 624.133 5.01625C624.491 5.14545 624.818 5.34707 625.095 5.60847C625.371 5.86986 625.59 6.18542 625.739 6.5354C625.887 6.88537 625.962 7.26222 625.958 7.64237C625.997 8.19341 625.851 8.74172 625.545 9.20134C625.238 9.66096 624.788 10.0059 624.264 10.1821C625.356 10.4717 625.668 11.5188 625.735 12.5436C625.696 13.3599 625.841 14.1745 626.159 14.9274H623.929C623.726 14.1401 623.607 13.3336 623.572 12.5213C623.416 11.452 623.015 11.0064 621.9 11.0064H619.671V14.9497H617.441L617.575 4.85757ZM619.805 9.31325H622.235C623.216 9.31325 623.773 8.88996 623.773 7.86515C623.773 6.84035 623.238 6.46161 622.235 6.46161H619.805V9.31325Z" fill="white"/>
<path d="M396.274 27.3142V100.588C396.274 101.785 396.589 102.96 397.188 103.997L406.106 119.591C406.705 120.628 407.566 121.488 408.603 122.087C409.64 122.685 410.816 123 412.014 123H448.4C449.597 123.001 450.774 122.686 451.811 122.087L465.411 114.245C465.669 114.097 465.961 114.021 466.258 114.022C466.713 114.022 467.15 114.203 467.472 114.524C467.794 114.846 467.975 115.282 467.975 115.737V120.304C467.975 120.984 468.245 121.635 468.726 122.116C469.207 122.596 469.859 122.866 470.539 122.866H486.034C486.698 122.843 487.328 122.563 487.789 122.085C488.251 121.607 488.509 120.969 488.509 120.304V29.8762C488.509 29.2119 488.251 28.5734 487.789 28.0954C487.328 27.6174 486.698 27.3373 486.034 27.3142H470.65C469.97 27.3142 469.318 27.5841 468.837 28.0646C468.356 28.5451 468.086 29.1967 468.086 29.8762V99.8527C468.095 100.2 468.034 100.546 467.905 100.87C467.776 101.193 467.582 101.486 467.336 101.732C467.09 101.978 466.796 102.171 466.473 102.3C466.15 102.429 465.803 102.491 465.455 102.482H419.327C418.647 102.482 417.995 102.212 417.514 101.731C417.033 101.251 416.763 100.599 416.763 99.9196V29.8762C416.763 29.1967 416.493 28.5451 416.012 28.0646C415.531 27.5841 414.879 27.3142 414.199 27.3142H396.274Z" fill="white"/>
<path d="M368.093 122.889C367.754 122.889 367.419 122.822 367.106 122.691C366.794 122.561 366.51 122.371 366.272 122.13C366.033 121.89 365.845 121.605 365.717 121.292C365.59 120.978 365.526 120.643 365.529 120.304V27.3142H386.018V120.304C386.021 120.641 385.957 120.975 385.831 121.286C385.705 121.598 385.519 121.883 385.283 122.122C385.047 122.362 384.766 122.554 384.456 122.685C384.146 122.817 383.813 122.886 383.476 122.889H368.093ZM365.529 0.000871973V18.7816H386.018V2.56289C386.018 1.88724 385.751 1.23894 385.275 0.759101C384.799 0.279265 384.152 0.00674716 383.476 0.000871973H365.529Z" fill="white"/>
<path d="M124.697 120.304C124.697 120.984 124.427 121.635 123.946 122.116C123.465 122.596 122.813 122.866 122.133 122.866H106.749C106.069 122.866 105.417 122.596 104.936 122.116C104.455 121.635 104.185 120.984 104.185 120.304V2.56289C104.185 1.8834 104.455 1.23174 104.936 0.75127C105.417 0.270798 106.069 0.000871973 106.749 0.000871973H122.111C122.791 0.000871973 123.443 0.270798 123.923 0.75127C124.404 1.23174 124.674 1.8834 124.674 2.56289V27.3142H141.753V47.7881H124.697V120.304Z" fill="white"/>
<path d="M355.273 0.000871973V120.304C355.273 120.984 355.003 121.635 354.522 122.116C354.041 122.596 353.389 122.866 352.709 122.866H337.348C336.668 122.866 336.016 122.596 335.535 122.116C335.054 121.635 334.784 120.984 334.784 120.304V115.604C334.78 115.305 334.699 115.013 334.547 114.756C334.396 114.499 334.18 114.286 333.922 114.137C333.663 113.989 333.37 113.91 333.071 113.91C332.773 113.909 332.479 113.986 332.22 114.133L318.62 121.975C317.583 122.575 316.406 122.89 315.209 122.889H255.368C255.03 122.889 254.695 122.822 254.382 122.691C254.07 122.561 253.786 122.371 253.548 122.13C253.309 121.89 253.121 121.605 252.993 121.292C252.866 120.978 252.802 120.643 252.805 120.304V48.3228C252.789 47.111 253.097 45.917 253.696 44.8637C254.296 43.8103 255.165 42.9357 256.216 42.3299L280.74 28.1385C281.775 27.5342 282.953 27.2187 284.151 27.2251H334.717V2.56289C334.717 2.22074 334.785 1.88204 334.918 1.56676C335.051 1.25148 335.246 0.966024 335.491 0.727224C335.737 0.488424 336.027 0.301122 336.346 0.176371C336.665 0.0516198 337.005 -0.00805364 337.348 0.000871973H355.273ZM273.294 99.8527C273.285 100.195 273.345 100.535 273.469 100.854C273.594 101.172 273.782 101.463 274.021 101.708C274.26 101.953 274.545 102.147 274.861 102.28C275.176 102.413 275.515 102.482 275.858 102.482H332.197C332.878 102.482 333.53 102.212 334.01 101.731C334.491 101.251 334.761 100.599 334.761 99.9196V37.0944C334.754 36.7981 334.67 36.5088 334.517 36.2548C334.364 36.0007 334.148 35.7905 333.89 35.6446C333.632 35.4988 333.34 35.4223 333.044 35.4226C332.747 35.4229 332.455 35.5 332.197 35.6463L312.689 46.7855C311.653 47.3849 310.476 47.7 309.278 47.699H275.835C275.155 47.699 274.503 47.9689 274.022 48.4494C273.542 48.9298 273.271 49.5815 273.271 50.261L273.294 99.8527Z" fill="white"/>
<path d="M219.496 102.482C219.832 102.482 220.166 102.415 220.477 102.287C220.788 102.158 221.071 101.969 221.309 101.731C221.547 101.493 221.736 101.211 221.864 100.9C221.993 100.589 222.06 100.256 222.06 99.9196V66.2346C222.06 65.7796 221.879 65.3433 221.557 65.0216C221.235 64.6999 220.798 64.5192 220.343 64.5192C220.046 64.5179 219.754 64.5948 219.496 64.742L159.745 99.2289C159.396 99.4014 159.117 99.6869 158.952 100.039C158.787 100.391 158.746 100.788 158.837 101.166C158.928 101.544 159.144 101.88 159.451 102.119C159.757 102.358 160.136 102.486 160.525 102.482H219.496ZM242.549 120.304C242.549 120.984 242.279 121.635 241.798 122.116C241.317 122.596 240.665 122.866 239.985 122.866H224.624C223.944 122.866 223.291 122.596 222.811 122.116C222.33 121.635 222.06 120.984 222.06 120.304V115.604C222.06 115.149 221.879 114.712 221.557 114.391C221.235 114.069 220.798 113.888 220.343 113.888C220.046 113.887 219.754 113.964 219.496 114.111L205.896 121.953C204.859 122.552 203.682 122.867 202.484 122.866H147.148C145.63 122.884 144.148 122.397 142.938 121.481C141.727 120.566 140.855 119.274 140.459 117.809L134.596 95.9094C134.204 94.4563 134.304 92.9144 134.88 91.5241C135.457 90.1337 136.478 88.9732 137.784 88.2234L202.44 50.9516C202.759 50.7601 203.007 50.4702 203.147 50.1254C203.287 49.7807 203.311 49.3998 203.215 49.0403C203.12 48.6808 202.91 48.362 202.617 48.1321C202.324 47.9023 201.965 47.7737 201.593 47.7658H150.314V27.3142H220.989C222.187 27.3142 223.363 27.6292 224.401 28.2276C225.438 28.8259 226.299 29.6865 226.898 30.7228L241.612 56.2093C242.217 57.2432 242.533 58.4204 242.526 59.6179L242.549 120.304Z" fill="white"/>
<path d="M2.56404 122.889C2.22545 122.889 1.89022 122.822 1.57768 122.691C1.26515 122.561 0.981507 122.371 0.743129 122.13C0.504752 121.89 0.31636 121.605 0.188829 121.292C0.0612976 120.978 -0.00284728 120.643 9.69452e-05 120.304V104.932C0.0288409 104.272 0.311607 103.649 0.789359 103.192C1.26711 102.736 1.90292 102.481 2.56404 102.482H68.2901C68.6829 102.497 69.069 102.376 69.3838 102.141C69.6986 101.906 69.9231 101.57 70.0197 101.189C70.1163 100.808 70.0791 100.406 69.9144 100.049C69.7498 99.6922 69.4676 99.4027 69.115 99.2289L4.45912 61.9571C3.16935 61.1941 2.16695 60.0279 1.60681 58.6386C1.04667 57.2494 0.959965 55.7145 1.3601 54.2711L7.22372 32.3714C7.61929 30.9065 8.49111 29.6147 9.70196 28.6991C10.9128 27.7836 12.3939 27.2964 13.9123 27.3142H95.6462V47.7881H27.3562C26.984 47.796 26.6245 47.9245 26.3318 48.1544C26.0391 48.3843 25.8291 48.703 25.7335 49.0626C25.6379 49.4221 25.6618 49.8029 25.8017 50.1477C25.9416 50.4924 26.1898 50.7824 26.509 50.9739L91.1649 88.2457C92.4708 88.9955 93.4917 90.156 94.0685 91.5463C94.6452 92.9367 94.7452 94.4786 94.3531 95.9317L88.4894 117.831C88.0939 119.296 87.2221 120.588 86.0112 121.504C84.8004 122.419 83.3192 122.906 81.8009 122.889H2.56404Z" fill="white"/>
<path d="M560.767 27.3142C561.965 27.3142 563.141 27.6292 564.178 28.2276C565.215 28.8259 566.077 29.6865 566.675 30.7228L575.593 46.3177V29.8762C575.593 29.1967 575.864 28.5451 576.344 28.0646C576.825 27.5841 577.477 27.3142 578.157 27.3142H616.193C617.379 27.3259 618.542 27.6464 619.566 28.2442C620.59 28.8419 621.441 29.6962 622.034 30.7228L630.952 46.3177C631.552 47.3536 631.867 48.5295 631.866 49.7263V120.304C631.866 120.984 631.596 121.635 631.115 122.116C630.635 122.596 629.982 122.866 629.302 122.866H613.941C613.281 122.838 612.657 122.555 612.2 122.078C611.743 121.6 611.488 120.965 611.489 120.304V50.3501C611.489 49.6706 611.218 49.0189 610.738 48.5385C610.257 48.058 609.605 47.7881 608.925 47.7881H575.616V120.304C575.619 120.648 575.553 120.989 575.421 121.307C575.289 121.625 575.095 121.913 574.849 122.155C574.604 122.396 574.312 122.585 573.992 122.711C573.672 122.837 573.329 122.898 572.985 122.889H557.601C556.937 122.86 556.31 122.574 555.852 122.092C555.395 121.61 555.142 120.969 555.149 120.304V50.3501C555.149 49.6706 554.879 49.0189 554.398 48.5385C553.917 48.058 553.265 47.7881 552.585 47.7881H521.706C521.026 47.7881 520.374 48.058 519.893 48.5385C519.412 49.0189 519.142 49.6706 519.142 50.3501V120.304C519.142 120.984 518.872 121.635 518.391 122.116C517.91 122.596 517.258 122.866 516.578 122.866H501.195C500.538 122.832 499.92 122.547 499.467 122.07C499.015 121.593 498.764 120.961 498.764 120.304V29.8762C498.764 29.1967 499.035 28.5451 499.515 28.0646C499.996 27.5841 500.648 27.3142 501.328 27.3142H516.712C517.392 27.3142 518.044 27.5841 518.525 28.0646C519.006 28.5451 519.276 29.1967 519.276 29.8762V34.5993C519.28 34.8974 519.361 35.1895 519.512 35.4467C519.664 35.7038 519.879 35.9171 520.138 36.0655C520.397 36.214 520.69 36.2924 520.988 36.2931C521.287 36.2939 521.58 36.2168 521.84 36.0696L535.44 28.2276C536.474 27.6233 537.653 27.3078 538.851 27.3142H560.767Z" fill="white"/>
</svg>
