<svg width="363" height="26" viewBox="0 0 363 26" fill="none" xmlns="http://www.w3.org/2000/svg">
<path d="M264.693 25.1549H281.301V24.2575H264.693" fill="white"/>
<path d="M255.081 1.02344L260.255 25.1648H254.68L253.711 19.7922H249.151L248.183 25.1648H242.867L247.899 1.02344H255.081ZM251.419 4.87104L249.647 15.9211H253.215L251.419 4.87104Z" fill="white"/>
<path d="M291.581 25.6574C289.171 25.6574 287.329 24.9301 286.077 23.499C284.825 22.0679 284.21 20.0972 284.258 17.5869H289.171C289.219 20.1676 290.022 21.4814 291.581 21.4814C292.857 21.4814 293.495 20.7072 293.495 19.1353C293.495 18.1499 293.282 17.3523 292.857 16.7423C292.432 16.1323 291.605 15.5223 290.4 14.8654C288.321 13.8566 286.833 12.7774 285.935 11.5809C285.037 10.4078 284.588 8.92978 284.588 7.17021C284.588 5.10565 285.203 3.48684 286.455 2.31379C287.707 1.14075 289.408 0.554223 291.558 0.554223C293.707 0.554223 295.432 1.18767 296.566 2.4311C297.7 3.67453 298.291 5.52794 298.314 7.94442H293.542C293.542 6.8183 293.377 5.99716 293.07 5.50448C292.762 4.98834 292.29 4.73027 291.652 4.73027C291.061 4.73027 290.613 4.91796 290.282 5.29333C289.951 5.66871 289.786 6.20831 289.786 6.86522C289.786 7.68635 289.975 8.34326 290.376 8.83594C290.778 9.32862 291.558 9.9386 292.762 10.6659C294.912 11.792 296.424 12.9651 297.298 14.1616C298.196 15.3581 298.645 16.883 298.669 18.7599C298.669 20.8949 298.031 22.5841 296.779 23.8275C295.527 25.0709 293.778 25.6809 291.558 25.6809L291.581 25.6574Z" fill="white"/>
<path d="M305.945 25.1648H300.7V1.02344H308.284C310.575 1.02344 312.276 1.70381 313.434 3.04108C314.568 4.37836 315.159 6.34908 315.159 8.90632C315.159 11.4636 314.592 13.3874 313.434 14.7012C312.276 16.015 310.575 16.6954 308.284 16.6954H305.945V25.1648ZM305.945 12.6366H307.788C308.567 12.6366 309.134 12.3551 309.489 11.7686C309.843 11.182 310.032 10.2436 310.032 8.95324C310.032 7.66289 309.843 6.67753 309.489 6.11447C309.134 5.52794 308.544 5.24641 307.764 5.24641H305.969V12.6601L305.945 12.6366Z" fill="white"/>
<path d="M326.687 1.02344L331.861 25.1648H326.286L325.317 19.7922H320.758L319.789 25.1648H314.497L319.506 1.02344H326.687ZM323.026 4.87104L321.254 15.9211H324.821L323.026 4.87104Z" fill="white"/>
<path d="M340.437 25.6574C337.649 25.6574 335.57 24.6252 334.2 22.5606C332.83 20.496 332.145 17.3288 332.145 13.1058C332.145 8.88286 332.83 5.71563 334.2 3.62761C335.57 1.56304 337.649 0.530762 340.437 0.530762C342.941 0.530762 344.831 1.35189 346.154 2.99416C347.453 4.63643 348.091 7.07637 348.091 10.3609H343.177C343.107 6.84176 342.232 5.08219 340.579 5.08219C339.516 5.08219 338.736 5.69217 338.263 6.91214C337.791 8.13211 337.555 10.1967 337.555 13.1293C337.555 16.0619 337.791 18.1265 338.263 19.3464C338.736 20.5664 339.492 21.1764 340.579 21.1764C342.232 21.1764 343.107 19.4168 343.177 15.8977H348.091C348.091 19.1588 347.453 21.6222 346.154 23.2644C344.855 24.9067 342.941 25.7044 340.437 25.7044V25.6574Z" fill="white"/>
<path d="M362.219 20.7541V25.1648H350.099V1.02344H361.935V5.4341H355.273V10.8536H360.872V15.1H355.273V20.7541H362.219Z" fill="white"/>
<path d="M12.9277 24.8396H8.73125L0 0H4.72097L10.8295 18.3001L16.9549 0H21.6928L12.9277 24.8396ZM33.2329 0H28.7827V24.8396H33.2329V0ZM49.9678 24.9465C48.7157 24.9465 47.582 24.7684 46.6005 24.4298C45.636 24.1091 44.7392 23.5923 43.9778 22.8974C43.2332 22.2024 42.6241 21.3471 42.1841 20.4027C41.7104 19.3514 41.4058 18.211 41.2873 17.0527L41.2366 16.6073H45.653L45.7037 16.928C45.8222 17.6408 46.0083 18.2466 46.279 18.7099C46.5328 19.1732 46.8543 19.5474 47.2266 19.8325C47.5989 20.1176 48.0219 20.3136 48.4788 20.4383C49.4263 20.6878 50.5431 20.6878 51.4907 20.4383C51.9476 20.3136 52.3706 20.1176 52.709 19.8503C53.0474 19.6009 53.3182 19.2623 53.5212 18.8525C53.7243 18.4426 53.8258 17.9437 53.8258 17.3557C53.8258 16.8567 53.7412 16.4291 53.5889 16.1262C53.4197 15.7876 53.1828 15.5025 52.8782 15.3065C52.4552 15.0214 52.0153 14.8076 51.5415 14.6472C50.8815 14.4155 50.2047 14.2195 49.5109 14.0413C48.5634 13.7919 47.6158 13.5068 46.7021 13.1504C45.8391 12.8297 45.0269 12.3842 44.2654 11.8318C43.5547 11.2972 42.9625 10.6023 42.5395 9.80043C42.1165 8.98076 41.8965 7.96508 41.8965 6.7712C41.8965 5.57733 42.1503 4.57947 42.6241 3.70634C43.0979 2.85103 43.7409 2.15609 44.5192 1.60371C45.3145 1.05132 46.1944 0.641483 47.1251 0.392017C48.9695 -0.106914 50.8985 -0.124733 52.7598 0.356379C53.6397 0.588026 54.4857 0.980043 55.2133 1.55025C55.9409 2.10264 56.567 2.85103 57.0746 3.74198C57.5654 4.65075 57.9038 5.77334 58.0392 7.09195L58.0899 7.5196H53.6735L53.6397 7.18104C53.5889 6.71775 53.4535 6.29009 53.2336 5.88026C53.0305 5.52388 52.7767 5.22096 52.4721 4.98931C52.1337 4.73984 51.7784 4.56165 51.3723 4.45474C50.6277 4.24091 49.7817 4.20527 48.8003 4.40128C48.3942 4.47256 48.005 4.61511 47.6327 4.82894C47.2943 5.00713 47.0066 5.27441 46.7867 5.59515C46.5836 5.89808 46.4821 6.29009 46.4821 6.7712C46.4821 7.19886 46.5667 7.55524 46.719 7.84034C46.8713 8.12545 47.1251 8.39273 47.4297 8.60656C47.7681 8.8382 48.208 9.05203 48.7495 9.24804C49.291 9.44405 49.9509 9.62224 50.7123 9.81825C51.3384 9.9608 51.9645 10.139 52.5737 10.3172C53.1828 10.5132 53.792 10.727 54.3504 10.9943C54.9088 11.2616 55.4502 11.5823 55.9409 11.9387C56.4486 12.3129 56.8716 12.7584 57.2439 13.2751C57.5992 13.7919 57.8869 14.3977 58.0899 15.0748C58.293 15.752 58.3945 16.536 58.3945 17.4091C58.3945 18.5674 58.1745 19.6543 57.7346 20.5809C57.3115 21.5075 56.7024 22.3272 55.9409 22.9865C55.1964 23.6458 54.2996 24.1447 53.2843 24.4832C52.2183 24.8396 51.1184 25 50.0017 25M74.994 24.8396C73.8434 24.8396 72.7266 24.6614 71.6606 24.3051C70.5776 23.9487 69.5962 23.3428 68.7671 22.541C67.921 21.7391 67.2442 20.67 66.7366 19.3692C66.2458 18.0862 65.992 16.5004 65.992 14.6472V0H70.4423V14.6472C70.4423 15.8054 70.5776 16.7855 70.8315 17.5339C71.0853 18.2823 71.4237 18.8703 71.8298 19.3158C72.2359 19.7434 72.7266 20.0641 73.2512 20.2423C74.3849 20.6165 75.5863 20.6165 76.7031 20.2423C77.2276 20.0641 77.7183 19.7612 78.1244 19.3158C78.5305 18.8881 78.8689 18.2823 79.1228 17.5339C79.3766 16.7855 79.5119 15.8054 79.5119 14.6472V0H83.996V14.6472C83.996 16.4825 83.7422 18.0862 83.2346 19.3692C82.7269 20.67 82.0332 21.7213 81.204 22.541C80.3749 23.3428 79.3766 23.9487 78.3105 24.3051C77.2445 24.6614 76.1277 24.8396 74.994 24.8396ZM130.241 24.8396H116.095V0.0356379H120.545V20.4205H130.224V24.8218L130.241 24.8396ZM166.994 10.7448H170.581C171.19 10.7448 171.732 10.6914 172.222 10.5666C172.696 10.4419 173.085 10.2637 173.424 9.99644C173.745 9.74697 173.999 9.40841 174.151 9.03421C174.32 8.62438 174.422 8.12545 174.422 7.5196C174.422 6.91376 174.337 6.41483 174.151 6.00499C173.999 5.63079 173.745 5.29223 173.424 5.04277C173.085 4.77548 172.679 4.57947 172.256 4.49038C171.732 4.36564 171.19 4.31219 170.649 4.31219H166.96V10.7448H166.994ZM180.226 24.8396H175.031L169.413 15.0214H166.994V24.8396H162.594V0.0534569H170.632C171.968 0.0534569 173.17 0.231646 174.185 0.570207C175.217 0.908767 176.097 1.4077 176.808 2.067C177.519 2.7263 178.06 3.51034 178.415 4.45474C178.771 5.38133 178.957 6.41482 178.957 7.55524C178.957 9.37277 178.483 10.9052 177.552 12.0991C176.723 13.1682 175.573 13.9522 174.117 14.4334L180.209 24.8753L180.226 24.8396ZM196.944 24.8396H192.494V4.47256H185.438V0.0534569H204V4.47256H196.944V24.8396ZM110.782 24.8396H106.061L99.9526 6.53956L93.8102 24.8396H89.0723L97.8543 0H102.051L110.799 24.8396H110.782ZM156.435 24.8396H151.714L145.606 6.53956L139.463 24.8396H134.725L143.507 0H147.704L147.788 0.249465L156.435 24.8218V24.8396Z" fill="white"/>
<path d="M229 8.70435L220.328 16.7043M228.672 16.7043L220 8.70435" stroke="white" stroke-linecap="round"/>
</svg>
